ply
format ascii 1.0
element vertex 10
property float x
property float y
property float z
end_header
0.00790243902439022 0.0522926829268292 0
0.995999999999998 0.05 0
0.990000000000007 0.910000000000001 0
0.025150471960022 0.895127151582454 0
0.000444444444444444 0.186444444444445 0.0780000000000001
0.00866666666666666 0.966771929824561 0.0780000000000001
0.0597192037120198 0.417496183206107 0.924000000000001
0.00875714285714286 0.0125285714285714 0.924000000000001
0.00509497206703911 0.0255754189944134 0.994000000000001
0.0765140774258433 0.52488486676722 0.994000000000001
