ply
format ascii 1.0
element vertex 10
property float x
property float y
property float z
end_header
0.00790243902439022 0.0522926829268292 0
0.995999999999998 0.05 0
0.990000000000007 0.910000000000001 0
0.025150471960022 0.895127151582454 0
0.0100346106304079 0.0715624227441286 0.1
0.0189035639412998 0.855157232704402 0.1
0.0597192037120198 0.417496183206107 0.924000000000001
0.00875714285714286 0.0125285714285714 0.924000000000001
0.00461463414634147 0.031570731707317 0.998000000000001
0.0663991787652157 0.594186244317349 0.998000000000001
