ply
format ascii 1.0
element vertex 10
property float x
property float y
property float z
element face 5
property list uchar uint vertex_indices
end_header
0.00830218687872761 0.047455268389662 0.006
0.996000000000002 0.028 0.006
0.990000000000003 0.886000000000001 0.006
0.0291391100702573 0.866326932084308 0.006
0.0104009269988412 0.0672375434530707 0.102
0.0202064264849074 0.844663096397275 0.102
0.0510106327348795 0.476413456510371 0.936000000000001
0.00647956403269755 0.0427029972752043 0.936000000000001
0.00461463414634147 0.031570731707317 0.996000000000001
0.0714534380075807 0.559536275040607 0.996000000000001
4 0 1 2 3
4 0 3 5 4
4 0 4 7 8
4 3 5 6 9
4 9 8 7 6
