ply
format ascii 1.0
element vertex 16
property float x
property float y
property float z
element face 12
property list uchar uint vertex_indices
end_header
0.793081081081082 0.471351351351352 0.168
0.886315789473685 0.483947368421053 0.168
0.929076923076924 0.483692307692308 0.168
0.998000000000001 0.471 0.168
0.764600000000001 0.5626 0.274
0.864844444444445 0.576177777777778 0.274
0.911422222222223 0.576177777777778 0.274
0.998000000000001 0.56 0.274
0.737574468085107 0.654255319148936 0.336
0.846000000000001 0.666 0.336
0.905625000000001 0.668083333333334 0.336
0.998000000000001 0.65 0.336
0.68344 0.82084 0.414
0.837473684210527 0.840210526315791 0.414
0.891864406779662 0.840813559322035 0.414
0.997500000000001 0.806000000000001 0.414
3 0 4 5
3 1 5 0
3 2 3 6
3 3 7 6
3 4 8 9
3 5 9 4
3 6 7 10
3 7 11 10
3 8 12 13
3 9 13 8
3 10 11 14
3 11 15 14
