ply
format ascii 1.0
element vertex 16
property float x
property float y
property float z
end_header
0.537481481481481 0.234098765432099 0.326
0.622141176470588 0.245388235294118 0.326
0.660620689655173 0.245379310344828 0.326
0.730181818181818 0.237590909090909 0.326
0.474 0.279576470588235 0.444
0.562727272727273 0.290727272727273 0.444
0.60439175257732 0.291360824742268 0.444
0.690432989690722 0.281938144329897 0.444
0.412428571428572 0.322428571428572 0.52
0.507784313725491 0.332725490196079 0.52
0.560097087378641 0.335145631067961 0.52
0.650297029702971 0.324613861386139 0.52
0.34056862745098 0.440333333333334 0.602
0.472836363636364 0.456236363636364 0.602
0.520159292035399 0.457097345132744 0.602
0.620517241379311 0.43348275862069 0.602
